[center][img]http://img820.imageshack.us/img820/7713/b0034g4oxq01lzzzzzzz.jpg[/img]



[img]http://leetleech.org/images/48874973695367351744.png[/img]


Format                           : AVI
Format/Info                      : Audio Video Interleave
File size                        : 1.89 GiB
Duration                         : 2h 9mn
Overall bit rate                 : 2 092 Kbps
Writing application              : VirtualDubMod 1.5.10.2 (build 2542/release)
Writing library                  : VirtualDub build 32839/release

Video
ID                               : 0
Format                           : MPEG-4 Visual
Format profile                   : Advanced Simple@L5
Format settings, BVOP            : Yes
Format settings, QPel            : No
Format settings, GMC             : No warppoints
Format settings, Matrix          : Custom
Codec ID                         : XVID
Codec ID/Hint                    : XviD
Duration                         : 2h 9mn
Bit rate                         : 1 635 Kbps
Width                            : 720 pixels
Height                           : 304 pixels
Display aspect ratio             : 2.35:1
Frame rate                       : 23.976 fps
Color space                      : YUV
Chroma subsampling               : 4:2:0
Bit depth                        : 8 bits
Scan type                        : Progressive
Bits/(Pixel*Frame)               : 0.312
Stream size                      : 1.47 GiB (78%)
Writing library                  : XviD 1.2.1 (UTC 2008-12-04)

Audio
ID                               : 1
Format                           : AC-3
Format/Info                      : Audio Coding 3
Mode extension                   : CM (complete main)
Codec ID                         : 2000
Duration                         : 2h 9mn
Bit rate mode                    : Constant
Bit rate                         : 448 Kbps
Channel(s)                       : 6 channels
Channel positions                : Front: L C R, Side: L R, LFE
Sampling rate                    : 48.0 KHz
Bit depth                        : 16 bits
Stream size                      : 413 MiB (21%)
Alignment                        : Split accross interleaves
Interleave, duration             : 42 ms (1.00 video frame)
Interleave, preload duration     : 500 ms




[url]http://www.imdb.com/title/tt1212419/[/url]




[IMG]http://leetleech.org/images/89524873606771859129.png[/IMG]


Storyline

A drama centered on three people who are haunted by mortality in different ways. George (Damon) is a blue-collar American who has a special connection to the afterlife. On the other side of the world, Marie (de France), a French journalist, has a near-death experience that shakes her reality. And when Marcus (Frankie/George McLaren), a London schoolboy, loses the person closest to him, he desperately needs answers. Each on a path in search of the truth, their lives will intersect, forever changed by what they believe might-or must-exist in the hereafter

Users: 7.1/10 (8,206 votes) 156 reviews | Critics: 223 reviews Metascore: 56/100 (based on 42 reviews from Metacritic.com)


Director:
Clint Eastwood
Writer:
Peter Morgan
Stars:
Matt Damon, Cécile De France and Bryce Dallas Howard




[img]http://leetleech.org/images/95521316153253938506.png[/img]




[img]http://img835.imageshack.us/img835/3095/vlcsnap2011022712h30m03.png[/img]

[img]http://img28.imageshack.us/img28/8351/vlcsnap2011022712h30m14.png[/img]

[img]http://img819.imageshack.us/img819/4539/vlcsnap2011022712h30m39.png[/img]

[img]http://img683.imageshack.us/img683/4531/vlcsnap2011022712h30m45.png[/img]



Source...............: Hereafter 720p TWiZTED....... Thanks



Greetz to Imagine ,Flawl3ss ,Santi ,Vision ,Kingdom, BDK, TOXiC, iNK, THC, Ez, Rx,





[img]http://img411.imageshack.us/img411/6898/sig1n.jpg[/img]




